<?xml version="1.0" encoding="UTF-8" standalone="no"?>
<!-- Created with Inkscape (http://www.inkscape.org/) -->

<svg
   xmlns:dc="http://purl.org/dc/elements/1.1/"
   xmlns:cc="http://creativecommons.org/ns#"
   xmlns:rdf="http://www.w3.org/1999/02/22-rdf-syntax-ns#"
   xmlns:svg="http://www.w3.org/2000/svg"
   xmlns="http://www.w3.org/2000/svg"
   xmlns:sodipodi="http://sodipodi.sourceforge.net/DTD/sodipodi-0.dtd"
   xmlns:inkscape="http://www.inkscape.org/namespaces/inkscape"
   id="svg2"
   version="1.1"
   inkscape:version="0.91 r13725"
   width="600"
   height="600"
   xml:space="preserve"
   sodipodi:docname="Epicentrk.svg"><metadata
     id="metadata8"><rdf:RDF><cc:Work
         rdf:about=""><dc:format>image/svg+xml</dc:format><dc:type
           rdf:resource="http://purl.org/dc/dcmitype/StillImage" /></cc:Work></rdf:RDF></metadata><defs
     id="defs6"><clipPath
       clipPathUnits="userSpaceOnUse"
       id="clipPath18"><path
         d="m 0,0 7729.79,0 0,1893 L 0,1893 0,0 z"
         id="path20"
         inkscape:connector-curvature="0" /></clipPath><clipPath
       clipPathUnits="userSpaceOnUse"
       id="clipPath18-0"><path
         inkscape:connector-curvature="0"
         d="M 0,1203.98 0,0 l 4227.6,0 0,1203.98 -4227.6,0 z"
         id="path20-0" /></clipPath></defs><sodipodi:namedview
     pagecolor="#ffffff"
     bordercolor="#666666"
     borderopacity="1"
     objecttolerance="10"
     gridtolerance="10"
     guidetolerance="10"
     inkscape:pageopacity="0"
     inkscape:pageshadow="2"
     inkscape:window-width="1366"
     inkscape:window-height="706"
     id="namedview4"
     showgrid="false"
     inkscape:zoom="0.46999998"
     inkscape:cx="-173.81943"
     inkscape:cy="346.42885"
     inkscape:window-x="-8"
     inkscape:window-y="-8"
     inkscape:window-maximized="1"
     inkscape:current-layer="g10" /><g
     id="g10"
     inkscape:groupmode="layer"
     inkscape:label="ink_ext_XXXXXX"
     transform="matrix(1.25,0,0,-1.25,0,600.00005)"><g
       id="g3056"
       transform="matrix(1.2191919,0,0,1.2191919,-115.75344,-232.92965)"><path
         d="m 327.35806,229.17523 -13.82537,0 0,16.73234 11.76932,0 0,14.59091 -11.76932,0 0,14.42212 12.51759,0 0,15.30702 -31.19401,0 0,-76.36549 32.50179,0 0,15.3131"
         style="fill:#1b4a96;fill-opacity:1;fill-rule:nonzero;stroke:none"
         id="path22"
         inkscape:connector-curvature="0" /><path
         d="m 181.92404,275.09758 5.79493,0 0,-61.23545 18.67518,0 0,76.54557 -43.14653,0 0,-76.54557 18.67642,0 0,61.23545"
         style="fill:#1b4a96;fill-opacity:1;fill-rule:nonzero;stroke:none"
         id="path24"
         inkscape:connector-curvature="0" /><path
         d="m 156.86773,230.59546 -15.1319,0 0,18.51373 12.89018,0 0,16.01803 -12.89018,0 0,16.023 13.8235,0 0,16.73339 -34.36968,0 0,-84.02148 35.67808,0 0,16.73333"
         style="fill:#1b4a96;fill-opacity:1;fill-rule:nonzero;stroke:none"
         id="path26"
         inkscape:connector-curvature="0" /><path
         d="m 352.41374,245.90757 5.78935,0 0,-32.04544 18.68138,0 0,76.36549 -18.68138,0 0,-27.41353 -5.78935,0 0,27.41353 -18.67642,0 0,-76.36549 18.67642,0 0,32.04544"
         style="fill:#1b4a96;fill-opacity:1;fill-rule:nonzero;stroke:none"
         id="path28"
         inkscape:connector-curvature="0" /><path
         d="m 393.19436,213.86213 18.68139,0 0,61.05847 11.203,0 0,15.30702 -40.90668,0 0,-15.30702 11.02229,0 0,-61.05847"
         style="fill:#1b4a96;fill-opacity:1;fill-rule:nonzero;stroke:none"
         id="path30"
         inkscape:connector-curvature="0" /><path
         d="m 231.45045,290.22762 -18.67828,0 0,-76.36549 18.67828,0 0,76.36549"
         style="fill:#1b4a96;fill-opacity:1;fill-rule:nonzero;stroke:none"
         id="path32"
         inkscape:connector-curvature="0" /><path
         d="m 289.56805,230.59546 -4.29714,0 0,67.28815 -20.54493,0 0,-67.28815 -6.35195,0 0,67.28815 -20.54431,0 0,-84.02148 37.541,0 0,-8.3082 14.19733,0 0,25.04153"
         style="fill:#1b4a96;fill-opacity:1;fill-rule:nonzero;stroke:none"
         id="path34"
         inkscape:connector-curvature="0" /><path
         d="m 448.87215,259.14426 c -5.44905,0 -9.89026,4.44294 -9.89026,9.90317 0,5.45277 4.44121,9.89336 9.89026,9.89336 5.45836,0 9.90081,-4.44059 9.90081,-9.89336 0,-5.46023 -4.44245,-9.90317 -9.90081,-9.90317 z m 19.1229,20.3138 c -0.47877,2.27898 -1.40899,4.22138 -2.79314,5.82101 -1.38229,1.6015 -3.45386,2.82792 -6.20105,3.67369 -2.75899,0.85011 -6.66926,1.27486 -11.74635,1.27486 l -18.88631,0 0,-76.36549 18.67642,0 0,30.79958 5.06032,0 c 4.10029,0 7.41878,0.59551 9.9654,1.78772 2.54102,1.19252 4.28907,2.90622 5.23232,5.13689 0.93892,2.22992 1.41086,5.78139 1.41086,10.65026 l 0,6.64443 c 0,4.77218 -0.23783,8.29932 -0.71847,10.57705"
         style="fill:#1b4a96;fill-opacity:1;fill-rule:nonzero;stroke:none"
         id="path36"
         inkscape:connector-curvature="0" /><path
         d="m 450.26624,264.11068 -2.13119,4.11334 0,-4.11334 -3.1415,0 0,9.86418 3.1415,0 0,-4.23132 2.00389,4.23132 3.61283,0 -2.6851,-4.8703 3.06079,-4.99388 -3.86122,0 z m -1.39409,12.45612 c -4.14376,0 -7.52062,-3.3812 -7.52062,-7.51937 0,-4.15246 3.37686,-7.52186 7.52062,-7.52186 4.15432,0 7.52621,3.3694 7.52621,7.52186 0,4.13817 -3.37189,7.51937 -7.52621,7.51937"
         style="fill:#1b4a96;fill-opacity:1;fill-rule:nonzero;stroke:none"
         id="path38"
         inkscape:connector-curvature="0" /><path
         d="m 475.97209,285.75536 c -0.0652,-0.0981 -0.15649,-0.16704 -0.28379,-0.21299 -0.16021,-0.0609 -0.39556,-0.0907 -0.70232,-0.0907 l -1.30964,0 0,1.23885 1.49407,0 c 0.33346,0 0.58247,-0.0609 0.71784,-0.1776 0.1242,-0.11116 0.18319,-0.24715 0.18319,-0.42164 0,-0.12233 -0.0317,-0.23163 -0.0994,-0.33595 z m 1.97097,-3.67865 -0.99729,1.56858 c -0.19126,0.29062 -0.39121,0.52969 -0.59427,0.73337 0.27571,0.11178 0.50982,0.25708 0.69052,0.4471 0.32229,0.34092 0.48499,0.76815 0.48499,1.26555 0,0.37941 -0.0944,0.73213 -0.28627,1.04448 -0.19872,0.32725 -0.47194,0.55887 -0.80541,0.6899 -0.31173,0.11985 -0.73585,0.17573 -1.29783,0.17573 l -2.89747,0 0,-6.44136 1.43631,0 0,2.56152 0.55143,0 c 0.22852,0 0.31918,-0.0149 0.35582,-0.0217 0.0714,-0.0186 0.15524,-0.0559 0.23907,-0.10805 0.0509,-0.036 0.15152,-0.11798 0.30304,-0.30924 0.13599,-0.17325 0.31669,-0.43282 0.53466,-0.77001 -0.004,0.001 0.76193,-1.19724 0.76193,-1.19724 l 0.0956,-0.15524 1.75239,0 -0.32725,0.51665"
         style="fill:#1b4a96;fill-opacity:1;fill-rule:nonzero;stroke:none"
         id="path40"
         inkscape:connector-curvature="0" /><path
         d="m 474.89407,290.71136 c -3.28433,0 -5.95638,-2.6733 -5.95638,-5.95825 0,-3.28309 2.67205,-5.95577 5.95638,-5.95577 3.28434,0 5.95701,2.67268 5.95701,5.95577 0,3.28495 -2.67267,5.95825 -5.95701,5.95825 z m 4.74425,-5.95825 c 0,-2.61368 -2.12932,-4.74238 -4.74425,-4.74238 -2.6174,0 -4.74362,2.1287 -4.74362,4.74238 0,2.61802 2.12622,4.74486 4.74362,4.74486 2.61493,0 4.74425,-2.12684 4.74425,-4.74486"
         style="fill:#1b4a96;fill-opacity:1;fill-rule:nonzero;stroke:none"
         id="path42"
         inkscape:connector-curvature="0" /></g><path
       inkscape:connector-curvature="0"
       id="path44"
       style="fill:#1b4a96;fill-opacity:1;fill-rule:nonzero;stroke:none"
       d="m 239.9995,166.68086 c -61.77299,0 -112.02903,50.25471 -112.02903,112.02722 0,55.03023 39.89414,100.88583 92.27276,110.2489 l 0,-24.52329 c 0,-6.58365 3.10019,-12.63907 8.26647,-16.47496 l 0,-20.59411 -46.15588,0 c -5.33292,0 -10.15943,-2.69611 -12.96083,-7.28685 -2.7143,-4.56741 -2.87375,-10.26291 -0.42758,-14.84328 l 58.31355,-111.31771 c 2.61864,-4.99695 7.76655,-8.10632 13.42623,-8.10632 5.68701,0 10.82979,3.11587 13.40875,8.10632 L 312.461,305.21564 c 2.45784,4.65091 2.28786,10.35472 -0.46989,14.93045 -2.73777,4.44909 -7.68511,7.21853 -12.91403,7.21853 l -46.17387,0 0,20.58245 c 5.19809,3.84755 8.31411,9.90964 8.31411,16.48662 l 0,24.26168 c 51.65857,-9.94461 90.81223,-55.46863 90.81223,-109.98729 0,-61.77251 -50.25639,-112.02722 -112.03004,-112.02722 z m 21.21782,247.40262 0,22.6354 c 0,11.28436 -9.20129,20.45747 -20.51215,20.45747 -11.28217,0 -20.46194,-9.17311 -20.46194,-20.45747 l 0,-22.42874 C 154.01781,404.68211 102.9756,347.55547 102.9756,278.70808 c 0,-75.55284 61.46856,-137.02208 137.0239,-137.02208 75.55586,0 137.0249,61.46924 137.0249,137.02208 0,68.34082 -50.29135,125.14751 -115.80708,135.3754" /></g></svg>