<?xml version="1.0" encoding="utf-8"?>
<!-- Generator: Adobe Illustrator 22.1.0, SVG Export Plug-In . SVG Version: 6.00 Build 0)  -->
<svg version="1.1" id="Layer_1" xmlns="http://www.w3.org/2000/svg" xmlns:xlink="http://www.w3.org/1999/xlink" x="0px" y="0px"
	 viewBox="0 0 894.3 206.4" style="enable-background:new 0 0 894.3 206.4;" xml:space="preserve">
<style type="text/css">
	.st0{fill:#221F1F;}
	.st1{fill:#05BC52;}
</style>
<g>
	<g>
		<path class="st0" d="M206.7,103.7c-0.3,57-46.7,103-103.8,102.7C45.8,206.2-0.3,159.7,0,102.7C0.3,45.7,46.8-0.3,103.8,0
			C160.9,0.3,207,46.7,206.7,103.7"/>
		<path class="st1" d="M54.2,79.3c3.5,0.8,7.4-3.5,8.7-9.6c1.3-6-0.4-11.6-3.9-12.3c-2.4-0.5-4.9,1.3-6.7,4.3
			c1.6,0.8,2.4,2.8,1.6,4.5c-0.7,1.5-2.3,2.4-3.9,2C49.3,73.8,51,78.6,54.2,79.3L54.2,79.3z M37.4,66.6c2.8-15,11.5-25.9,19.4-24.4
			c7.9,1.5,12,14.9,9.2,29.9c-2.8,15-11.5,25.9-19.4,24.4C38.7,95,34.6,81.6,37.4,66.6L37.4,66.6z M174.1,79.3
			c-88.3,59-149,29.1-149,29.1c-0.9,20.5,34.2,83.5,76.2,84.3C143.3,193.4,174.1,79.3,174.1,79.3L174.1,79.3z M46,99
			c9.2,1.8,19.3-10.1,22.4-26.4c3.1-16.3-1.9-31-11.1-32.8C48.1,38,38.1,49.9,35,66.2C31.8,82.5,36.8,97.2,46,99L46,99z M77.7,90.6
			c3.1-3.5,6.6-6.8,10.7-9.9c18.2-14,38.2-17.5,44.6-7.8c2.5,3.8,2.6,9,0.7,14.7c6.5-10.7,8.6-20.6,4.5-26.1
			c-6.7-9.1-27.6-2.9-46.6,14C86.2,80.3,81.5,85.5,77.7,90.6L77.7,90.6z M98,45.9c14.6-9.9,39.7-15.3,53.1,5.3
			C143,3.8,108,31.1,98,45.9L98,45.9z M204,103.7c-0.3,55.5-45.5,100.2-101.1,100C47.3,203.4,2.8,158.2,2.8,102.8
			c0-36,17.9-61.8,35-75.7c20.9-17,35.1-3.9,40.1,5.9c-0.6-4.2-2.3-16.2-7-24.9c10.3-3.5,21.3-5.4,32.8-5.4
			C159.4,3,204.2,48.2,204,103.7L204,103.7z M140.5,154.4c-10.9,19.6-24.5,35.6-39.7,35.3c-9.4-0.2-18.4-3.8-26.7-9.3
			C77,175.5,93.4,151.6,140.5,154.4"/>
	</g>
	<g>
		<path class="st0" d="M836.2,110.7L846.8,85l10.6,25.8H836.2L836.2,110.7z M862.2,69.1h-30.7l-32.2,69H825l5.6-13.5H863l5.5,13.5
			h25.8L862.2,69.1L862.2,69.1z"/>
		<polygon class="st0" points="626.9,86.8 655.5,86.8 655.5,138 679,138 679,86.8 707.6,86.8 707.6,69.1 626.9,69.1 626.9,86.8 		
			"/>
		<polygon class="st0" points="572.1,110.4 612.5,110.4 612.5,96.6 572.1,96.6 572.1,86.5 619.4,86.5 619.4,69.1 549.3,69.1 
			549.3,138 621.1,138 621.1,121 572.1,121 572.1,110.4 		"/>
		<polygon class="st0" points="539.3,81.4 539.3,69.1 463.1,69.1 463.1,86.8 504.1,86.8 462.5,125.8 462.5,138 539.5,138 
			539.5,120.3 498.2,120.3 539.3,81.4 		"/>
		<path class="st0" d="M409.7,121.8c-15,0-24.2-5.1-24.2-18.2c0-13.1,9.1-18.1,24.2-18.1c14.9,0,24.3,5,24.3,18.1
			C434,116.7,424.6,121.8,409.7,121.8L409.7,121.8z M409.7,67.4c-30.1,0-48.9,11.6-48.9,36.2c0,24.5,18.8,36.3,48.9,36.3
			c30.2,0,49-11.7,49-36.3C458.7,79,439.9,67.4,409.7,67.4L409.7,67.4z"/>
		<path class="st0" d="M297.4,85.3h22.8c7.1,0,9.8,3.8,9.8,8.7c0,3.3-2,9.2-10.2,9.2h-22.4V85.3L297.4,85.3z M353.8,94
			c0-14.6-9.3-25-31.6-25h-48.1v69h23.2v-19.5h15L329,138h29l-19.4-22.4C348.3,111.5,353.8,102.5,353.8,94L353.8,94z"/>
		<polygon class="st0" points="767.8,69.1 739.2,94.3 739.2,69.1 716,69.1 716,138 739.2,138 739.2,119 748,111.6 767.9,138 
			796.8,138 764.8,97.3 797.9,69.1 767.8,69.1 		"/>
	</g>
</g>
</svg>
